<?xml version="1.0" encoding="utf-8"?>
<!-- Generator: Adobe Illustrator 23.0.0, SVG Export Plug-In . SVG Version: 6.00 Build 0)  -->
<svg version="1.1" id="Camada_1" xmlns="http://www.w3.org/2000/svg" xmlns:xlink="http://www.w3.org/1999/xlink" x="0px" y="0px"
	 viewBox="0 0 3033.07 623.62" style="enable-background:new 0 0 3033.07 623.62;" xml:space="preserve">
<style type="text/css">
	.st0{fill:url(#SVGID_1_);}
	.st1{fill:#FFF;}
	.st2{fill:url(#SVGID_2_);}
	.st3{fill:url(#SVGID_3_);}
	.st4{fill:url(#SVGID_4_);}
	.st5{fill:url(#SVGID_5_);}
	.st6{fill:url(#SVGID_6_);}
	.st7{fill:url(#SVGID_7_);}
	.st8{fill:url(#SVGID_8_);}
	.st9{fill:url(#SVGID_9_);}
	.st10{fill:url(#SVGID_10_);}
	.st11{fill:url(#SVGID_11_);}
</style>
<linearGradient id="SVGID_1_" gradientUnits="userSpaceOnUse" x1="298.6035" y1="8.2856" x2="298.6035" y2="616.7951">
	<stop  offset="0" style="stop-color:#FFF"/>
	<stop  offset="1" style="stop-color:#FFF"/>
</linearGradient>
<path class="st0" d="M422.14,195.12c-9.93,0-18.43-7.56-19.39-17.65c-1.02-10.72,6.83-20.25,17.56-21.27
	c15.61-1.5,27.07-8.35,40.33-16.3c17.55-10.5,37.43-22.4,68.11-22.4c10.77,0,19.5,8.73,19.5,19.5s-8.73,19.5-19.5,19.5
	c-19.9,0-32.95,7.82-48.08,16.87c-15.13,9.05-32.28,19.32-56.65,21.65C423.39,195.09,422.76,195.12,422.14,195.12z M250.53,173.38
	c15.12-9.05,28.18-16.87,48.08-16.87c10.77,0,19.5-8.73,19.5-19.5s-8.73-19.5-19.5-19.5c-30.68,0-50.56,11.9-68.11,22.4
	c-15.5,9.28-27.74,16.6-46.96,16.6c-17.98,0-27.95-6.38-41.74-15.21c-16.57-10.61-37.19-23.8-73.33-23.8
	c-10.77,0-19.5,8.73-19.5,19.5s8.73,19.5,19.5,19.5c24.73,0,37.51,8.18,52.3,17.65c15.64,10.01,33.37,21.36,62.77,21.36
	C213.53,195.52,233.19,183.76,250.53,173.38z M480.67,277.72c15.12-9.05,28.18-16.87,48.08-16.87c10.77,0,19.5-8.73,19.5-19.5
	c0-10.77-8.73-19.5-19.5-19.5c-30.68,0-50.56,11.9-68.11,22.4c-15.5,9.28-27.74,16.6-46.96,16.6c-17.98,0-27.95-6.38-41.74-15.21
	c-16.57-10.61-37.19-23.8-73.33-23.8c-30.68,0-50.56,11.9-68.11,22.4c-15.5,9.28-27.74,16.6-46.96,16.6
	c-17.98,0-27.95-6.38-41.74-15.21c-16.57-10.61-37.19-23.8-73.33-23.8c-10.77,0-19.5,8.73-19.5,19.5c0,10.77,8.73,19.5,19.5,19.5
	c24.73,0,37.51,8.18,52.3,17.65c15.64,10.01,33.37,21.36,62.77,21.36c30,0,49.65-11.76,66.99-22.14
	c15.12-9.05,28.18-16.87,48.08-16.87c24.73,0,37.51,8.18,52.3,17.65c15.64,10.01,33.37,21.36,62.77,21.36
	C443.68,299.86,463.33,288.1,480.67,277.72z M480.67,490.31c15.12-9.05,28.18-16.87,48.08-16.87c10.77,0,19.5-8.73,19.5-19.5
	c0-10.77-8.73-19.5-19.5-19.5c-30.68,0-50.56,11.9-68.11,22.4c-15.5,9.28-27.74,16.6-46.96,16.6c-17.98,0-27.95-6.38-41.74-15.21
	c-16.57-10.61-37.19-23.8-73.33-23.8c-30.68,0-50.56,11.9-68.11,22.4c-15.5,9.28-27.74,16.6-46.96,16.6
	c-17.98,0-27.95-6.38-41.74-15.21c-16.57-10.61-37.19-23.8-73.33-23.8c-10.77,0-19.5,8.73-19.5,19.5c0,10.77,8.73,19.5,19.5,19.5
	c24.73,0,37.51,8.18,52.3,17.65c15.64,10.01,33.37,21.36,62.77,21.36c30,0,49.65-11.76,66.99-22.14
	c15.12-9.05,28.18-16.87,48.08-16.87c24.73,0,37.51,8.18,52.3,17.65c15.64,10.01,33.37,21.36,62.77,21.36
	C443.68,512.45,463.33,500.69,480.67,490.31z M422.82,616.41c25-2.11,42.45-12.55,57.84-21.76c15.12-9.05,28.18-16.87,48.08-16.87
	c10.77,0,19.5-8.73,19.5-19.5c0-10.77-8.73-19.5-19.5-19.5c-30.68,0-50.56,11.9-68.11,22.4c-13.46,8.06-25.08,15.02-41.09,16.36
	c-10.73,0.91-18.7,10.34-17.8,21.07c0.86,10.18,9.38,17.87,19.41,17.87C421.71,616.49,422.27,616.46,422.82,616.41z M250.53,594.66
	c15.12-9.05,28.18-16.87,48.08-16.87c10.77,0,19.5-8.73,19.5-19.5c0-10.77-8.73-19.5-19.5-19.5c-30.68,0-50.56,11.9-68.11,22.4
	c-15.5,9.28-27.74,16.6-46.96,16.6c-17.98,0-27.95-6.38-41.74-15.21c-16.57-10.61-37.19-23.8-73.33-23.8
	c-10.77,0-19.5,8.73-19.5,19.5c0,10.77,8.73,19.5,19.5,19.5c24.73,0,37.51,8.18,52.3,17.65c15.64,10.01,33.37,21.36,62.77,21.36
	C213.53,616.8,233.19,605.03,250.53,594.66z M480.67,385.97c15.12-9.05,28.18-16.87,48.08-16.87c10.77,0,19.5-8.73,19.5-19.5
	c0-10.77-8.73-19.5-19.5-19.5c-30.68,0-50.56,11.9-68.11,22.4c-15.5,9.28-27.74,16.6-46.96,16.6c-17.93,0-27.75-6.36-41.33-15.15
	c-16.42-10.63-36.85-23.85-73.05-23.85c-10.77,0-19.5,8.73-19.5,19.5c0,10.77,8.73,19.5,19.5,19.5c24.68,0,37.27,8.15,51.85,17.59
	c15.51,10.04,33.08,21.42,62.53,21.42C443.68,408.11,463.33,396.34,480.67,385.97z M188.81,390.76c1.82-10.62-5.31-20.7-15.93-22.52
	c-11.85-2.03-20.35-7.47-31.1-14.35c-16.57-10.61-37.19-23.8-73.33-23.8c-10.77,0-19.5,8.73-19.5,19.5c0,10.77,8.73,19.5,19.5,19.5
	c24.73,0,37.51,8.18,52.3,17.65c12.14,7.77,25.89,16.57,45.53,19.94c1.12,0.19,2.22,0.29,3.32,0.29
	C178.94,406.97,187.19,400.26,188.81,390.76z M480.67,64.16c15.12-9.05,28.18-16.87,48.08-16.87c10.77,0,19.5-8.73,19.5-19.5
	s-8.73-19.5-19.5-19.5c-30.68,0-50.56,11.9-68.11,22.4c-15.5,9.28-27.74,16.6-46.96,16.6c-17.98,0-27.95-6.38-41.74-15.21
	c-16.57-10.61-37.19-23.8-73.33-23.8c-30.68,0-50.56,11.9-68.11,22.4c-15.5,9.28-27.74,16.6-46.96,16.6
	c-17.98,0-27.95-6.38-41.74-15.21c-16.57-10.61-37.19-23.8-73.33-23.8c-10.77,0-19.5,8.73-19.5,19.5s8.73,19.5,19.5,19.5
	c24.73,0,37.51,8.18,52.3,17.65c15.64,10.01,33.37,21.36,62.77,21.36c30,0,49.65-11.76,66.99-22.14
	c15.12-9.05,28.18-16.87,48.08-16.87c24.73,0,37.51,8.18,52.3,17.65c15.64,10.01,33.37,21.36,62.77,21.36
	C443.68,86.3,463.33,74.54,480.67,64.16z"/>
<g>
	<circle class="st1" cx="363.08" cy="149.69" r="19.5"/>
	<circle class="st1" cx="236.31" cy="369.1" r="19.5"/>
	<circle class="st1" cx="361.13" cy="576.81" r="19.5"/>
</g>
<g>
	<g>
		<linearGradient id="SVGID_2_" gradientUnits="userSpaceOnUse" x1="1774.8787" y1="9.4531" x2="1774.8787" y2="609.1855">
			<stop  offset="0" style="stop-color:#FFF"/>
			<stop  offset="1" style="stop-color:#FFF"/>
		</linearGradient>
		<path class="st2" d="M754.47,41.05c9.75,0,17.94,4.3,24.57,12.87c6.63,8.58,15.21,26.33,25.74,53.24
			c24.57,63.58,48.56,163.24,71.97,298.99c0.38,1.56,0.58,3.8,0.58,6.73s-1.86,6.05-5.56,9.36c-3.71,3.32-8.98,4.97-15.8,4.97
			c-6.83,0-12.58-1.65-17.26-4.97c-4.68-3.31-7.81-8.78-9.36-16.38c-1.56-7.61-4.49-22.53-8.78-44.76
			c-9.36-49.53-15.61-75.28-18.72-77.23c-4.68-2.72-20.19-5.65-46.52-8.78c-26.33-3.12-43.79-4.68-52.37-4.68
			c-8.58,0-13.66,0.79-15.21,2.34c-7.02,6.24-16.58,53.64-28.67,142.18c-1.56,7.41-8.98,11.12-22.23,11.12
			c-13.27,0-19.89-5.65-19.89-16.97c0-28.09,10.33-81.71,31.01-160.9c20.67-79.18,37.83-131.65,51.49-157.39
			C716.63,57.63,734.96,41.05,754.47,41.05z M752.13,106c-5.85,0-16,17.26-30.43,51.78c-14.44,34.52-21.65,55.88-21.65,64.07
			c0,1.96,0.38,3.32,1.17,4.1c3.12,3.13,15.4,5.85,36.86,8.19c21.45,2.34,35.69,3.51,42.71,3.51c7.02,0,10.92-0.48,11.7-1.46
			c0.78-0.97,1.17-4.1,1.17-9.36c0-5.27-5.27-26.71-15.8-64.36C767.34,124.82,758.76,106,752.13,106z"/>
		<linearGradient id="SVGID_3_" gradientUnits="userSpaceOnUse" x1="1774.8787" y1="9.4531" x2="1774.8787" y2="609.1855">
			<stop  offset="0" style="stop-color:#FFF"/>
			<stop  offset="1" style="stop-color:#FFF"/>
		</linearGradient>
		<path class="st3" d="M1096.17,591.63c0-0.79,0-1.76,0-2.93l2.34-92.45c0-19.89-0.79-40.57-2.34-62.02l-3.51-45.64
			c-12.87,25.36-40.18,38.03-81.91,38.03c-19.89,0-38.43-6.44-55.58-19.31c-32.77-25.35-49.15-63.19-49.15-113.51
			c0-43.3,9.85-77.23,29.55-101.81c19.69-24.57,47.88-36.86,84.55-36.86c36.66,0,63.78,9.75,81.33,29.26
			c12.09,13.27,20.67,27.31,25.74,42.13c7.41,25.74,11.31,55.79,11.7,90.11v21.65l4.68,121.12c0.38,12.09,0.58,28.86,0.58,50.32
			v71.97c-1.56,7.41-5.47,13.84-11.7,19.31c-6.24,5.46-11.9,8.19-16.97,8.19C1102.6,609.19,1096.17,603.33,1096.17,591.63z
			 M1002.55,201.37c-16.78,0-29.26,6.64-37.45,19.89c-8.19,13.27-12.29,34.72-12.29,64.36c0,29.65,6.44,53.35,19.31,71.09
			c12.87,17.75,27.69,26.62,44.47,26.62c16.77,0,31.69-6.04,44.76-18.14c13.06-12.09,23.11-29.26,30.13-51.49
			c-1.96-41.34-9.75-70.41-23.4-87.18C1054.42,209.76,1032.58,201.37,1002.55,201.37z"/>
		<linearGradient id="SVGID_4_" gradientUnits="userSpaceOnUse" x1="1774.8787" y1="9.4531" x2="1774.8787" y2="609.1855">
			<stop  offset="0" style="stop-color:#FFF"/>
			<stop  offset="1" style="stop-color:#FFF"/>
		</linearGradient>
		<path class="st4" d="M1190.37,159.53c5.06-4.48,10.24-6.73,15.5-6.73c5.27,0,9.36,0.98,12.29,2.93c2.93,1.96,4.68,3.71,5.27,5.27
			c0.59,1.56,1.26,4.3,2.05,8.19c-2.34,30.43-3.51,57.83-3.51,82.21c0,24.38,2.93,52.27,8.78,83.67c5.85,31.4,12.29,47.1,19.31,47.1
			c10.53,0,23.89-5.85,40.08-17.55c16.18-11.7,27.79-23.99,34.81-36.86c-4.68-56.17-7.02-104.34-7.02-144.52
			c0-8.19,2.63-15.21,7.9-21.06s11.6-8.78,19.02-8.78c12.09,0,18.14,8.19,18.14,24.57c0,27.7,2.05,68.85,6.14,123.46
			c4.1,54.62,8.28,89.33,12.58,104.15c0.78,3.13,1.17,6.73,1.17,10.82s-2.63,8-7.9,11.7c-5.27,3.7-12.1,5.56-20.48,5.56
			c-8.39,0-13.95-4.68-16.68-14.04c-0.79-7.8-2.73-19.5-5.85-35.11c-27.31,28.48-54.81,42.71-82.5,42.71
			c-12.87,0-24.38-4.87-34.52-14.63c-10.15-9.75-18.14-23.01-23.99-39.79c-10.15-32.37-15.21-62.8-15.21-91.28
			c0-28.47,1.55-63.58,4.68-105.32C1181.97,169.58,1185.29,164.02,1190.37,159.53z"/>
		<linearGradient id="SVGID_5_" gradientUnits="userSpaceOnUse" x1="1774.8787" y1="9.4531" x2="1774.8787" y2="609.1855">
			<stop  offset="0" style="stop-color:#FFF"/>
			<stop  offset="1" style="stop-color:#FFF"/>
		</linearGradient>
		<path class="st5" d="M1578.87,153.39c17.16,0,25.74,14.63,25.74,43.88c0,3.13,0,6.44,0,9.95l-1.17,40.96
			c-0.39,12.87-0.58,25.55-0.58,38.03l8.78,132.23c0,9.75-9.95,14.63-29.84,14.63c-1.17,0-4,0-8.48,0c-4.49,0-7.61-1.76-9.36-5.27
			s-1.96-7.8-0.59-12.87c1.36-5.06,0.88-10.72-1.46-16.97c-17.95,19.12-41.74,28.67-71.38,28.67c-55,0-82.5-42.51-82.5-127.55
			c0-47.19,8.87-82.88,26.62-107.07c17.75-24.18,43.2-36.28,76.36-36.28c15.6,0,31.2,2.73,46.81,8.19
			C1562.88,156.9,1569.9,153.39,1578.87,153.39z M1518.02,206.63c-22.23,0-38.82,6.44-49.73,19.31
			c-10.93,12.87-16.38,36.48-16.38,70.8c0,57.73,15.6,86.6,46.81,86.6c8.19,0,17.26-3.7,27.21-11.12
			c9.95-7.41,16.87-15.8,20.77-25.16c7.4-21.06,11.12-44.08,11.12-69.04c0-24.96-3.03-43.1-9.07-54.41
			C1542.69,212.29,1532.45,206.63,1518.02,206.63z"/>
		<linearGradient id="SVGID_6_" gradientUnits="userSpaceOnUse" x1="1774.8787" y1="9.4531" x2="1774.8787" y2="609.1855">
			<stop  offset="0" style="stop-color:#FFF"/>
			<stop  offset="1" style="stop-color:#FFF"/>
		</linearGradient>
		<path class="st6" d="M1778.39,39.29c25.35,0,46.9,4.3,64.65,12.87c17.75,8.58,26.62,19.51,26.62,32.77
			c0,5.85-1.46,10.92-4.39,15.21c-2.93,4.3-7.22,6.44-12.87,6.44c-5.66,0-17.85-4.39-36.57-13.17
			c-18.72-8.78-35.79-13.17-51.2-13.17c-15.41,0-31.3,4.88-47.69,14.63c-16.38,9.75-24.57,21.65-24.57,35.69
			c0,19.12,9.95,33.16,29.84,42.13c14.82,6.64,36.08,12.58,63.78,17.85c27.69,5.27,50.32,16,67.87,32.18
			c17.55,16.19,26.33,40.67,26.33,73.43c0,49.94-15.02,86.8-45.05,110.58c-16.78,13.27-40.47,19.89-71.09,19.89
			c-30.63,0-61.14-8.38-91.57-25.16c-19.89-10.53-29.84-21.06-29.84-31.6c0-3.89,1.65-8.19,4.97-12.87
			c3.31-4.68,7.9-8.58,13.75-11.7c5.85-3.12,11.21-3.6,16.09-1.46c4.87,2.15,12.77,5.95,23.7,11.41
			c10.92,5.47,18.92,9.17,23.99,11.12c16.38,6.24,31.79,9.36,46.22,9.36c14.43,0,28.38-7.11,41.84-21.36
			c13.46-14.23,20.19-31.69,20.19-52.37c0-27.3-13.66-46.42-40.96-57.34c-13.27-5.46-28.29-9.55-45.05-12.29
			c-34.72-6.23-60.85-16.68-78.4-31.3c-17.55-14.63-26.33-36.76-26.33-66.41c0-29.64,12.67-52.95,38.03-69.92
			C1706.03,47.78,1738.61,39.29,1778.39,39.29z"/>
		<linearGradient id="SVGID_7_" gradientUnits="userSpaceOnUse" x1="1774.8787" y1="9.4531" x2="1774.8787" y2="609.1855">
			<stop  offset="0" style="stop-color:#FFF"/>
			<stop  offset="1" style="stop-color:#FFF"/>
		</linearGradient>
		<path class="st7" d="M1926.13,218.34c13.84-21.45,31.5-37.54,52.95-48.27c21.45-10.72,42.32-16.09,62.61-16.09
			c20.28,0,36.57,2.44,48.86,7.31c12.29,4.88,18.43,11.32,18.43,19.31c0,8-2.25,16-6.73,23.99c-4.49,8-10.44,11.99-17.85,11.99
			c-2.73,0-10.24-2.24-22.53-6.73c-12.29-4.48-20.19-6.73-23.7-6.73c-22.63,0-41.94,8.29-57.93,24.87
			c-16,16.58-23.99,38.53-23.99,65.82c0,27.31,4.39,47.69,13.17,61.14c8.78,13.46,23.89,20.19,45.35,20.19
			c8.58,0,23.3-4.97,44.18-14.92c20.86-9.95,33.83-14.92,38.91-14.92c5.06,0,9.16,1.56,12.29,4.68c3.12,3.13,4.68,7.02,4.68,11.7
			c0,9.36-5.95,19.22-17.85,29.55c-11.9,10.34-26.62,18.92-44.17,25.74c-17.55,6.83-33.35,10.24-47.39,10.24
			c-31.21,0-55.69-12.29-73.43-36.86c-17.75-24.57-26.62-58.12-26.62-100.64C1905.36,263.59,1912.28,239.79,1926.13,218.34z"/>
		<linearGradient id="SVGID_8_" gradientUnits="userSpaceOnUse" x1="1774.8787" y1="9.4531" x2="1774.8787" y2="609.1855">
			<stop  offset="0" style="stop-color:#FFF"/>
			<stop  offset="1" style="stop-color:#FFF"/>
		</linearGradient>
		<path class="st8" d="M2216.04,341.21l0.58,60.27c0,7.02-3.22,13.46-9.65,19.31c-6.44,5.85-12.78,8.78-19.02,8.78
			c-8.98,0-14.63-7.02-16.97-21.06c-0.39-3.12-1.96-31.69-4.68-85.72c-2.73-54.02-8-96.44-15.8-127.26
			c-3.51-14.82-5.27-23.6-5.27-26.33c0-12.87,7.8-19.31,23.4-19.31c6.63,0,11.89,2.54,15.8,7.61c3.89,5.07,6.33,10.24,7.31,15.51
			c0.97,5.27,1.85,12.39,2.63,21.36c0.78,8.98,1.36,14.63,1.76,16.97c8.19-19.5,20.48-34.13,36.86-43.88
			c16.38-9.75,34.32-14.63,53.83-14.63c31.98,0,47.98,8.19,47.98,24.57c0,8.19-2.83,14.73-8.48,19.6c-5.66,4.88-12.2,7.31-19.6,7.31
			c-33.16,0-56.56,10.53-70.21,31.6C2222.86,256.95,2216.04,292.06,2216.04,341.21z"/>
		<linearGradient id="SVGID_9_" gradientUnits="userSpaceOnUse" x1="1774.8787" y1="9.4531" x2="1774.8787" y2="609.1855">
			<stop  offset="0" style="stop-color:#FFF"/>
			<stop  offset="1" style="stop-color:#FFF"/>
		</linearGradient>
		<path class="st9" d="M2404.44,56.85c7.02,0,13.65,3.32,19.89,9.95c6.24,6.64,9.36,13.56,9.36,20.77c0,7.22-3.42,14.54-10.24,21.94
			c-6.83,7.41-13.95,11.12-21.36,11.12c-7.42,0-14.14-3.12-20.19-9.36c-6.05-6.23-9.07-14.23-9.07-23.99
			c0-18.72,10.14-28.86,30.43-30.43C2403.66,56.85,2404.05,56.85,2404.44,56.85z M2429.02,363.44l0.58,40.96
			c0,7.42-2.93,13.56-8.78,18.43c-5.85,4.87-12.09,7.31-18.72,7.31c-9.75,0-14.83-4.87-15.21-14.63
			c-5.07-124.43-7.61-193.28-7.61-206.54c0-13.26,0.58-29.45,1.75-48.56c0.78-7.02,5.27-10.53,13.46-10.53
			c20.67,0,32.37,8.39,35.11,25.16c1.17,8.58,1.75,15.41,1.75,20.48l-2.34,36.86V363.44z"/>
		<linearGradient id="SVGID_10_" gradientUnits="userSpaceOnUse" x1="1774.8787" y1="9.4531" x2="1774.8787" y2="609.1855">
			<stop  offset="0" style="stop-color:#FFF"/>
			<stop  offset="1" style="stop-color:#FFF"/>
		</linearGradient>
		<path class="st10" d="M2589.33,426.05c-13.27,0-25.55-4.48-36.86-13.46l-7.61-6.44v175.53c-2.34,7.8-6.44,14.33-12.29,19.6
			c-5.85,5.27-12.1,7.9-18.72,7.9c-10.15,0-15.21-6.83-15.21-20.48V180.89c2.34-10.14,5.17-17.35,8.48-21.65
			c3.31-4.29,8.58-6.44,15.8-6.44c7.21,0,11.89,1.66,14.04,4.97c2.14,3.32,4.77,12.39,7.9,27.21c1.55-7.8,7.8-15.01,18.72-21.65
			c10.92-6.63,25.54-9.95,43.88-9.95c39.79,0,68.06,14.44,84.84,43.3c16.77,28.87,25.16,62.9,25.16,102.1
			c0,39.2-11.41,70.21-34.23,93.03C2660.42,414.64,2629.12,426.05,2589.33,426.05z M2544.87,250.52v108.83
			c2.34,1.17,5.06,3.13,8.19,5.85c11.31,10.15,23.6,15.21,36.86,15.21c53.83,0,80.74-27.69,80.74-83.08
			c0-47.19-12.09-77.03-36.28-89.52c-10.15-5.46-22.63-8.19-37.45-8.19c-14.44,1.96-26.72,8.29-36.86,19.02
			C2549.93,229.36,2544.87,239.98,2544.87,250.52z"/>
		<linearGradient id="SVGID_11_" gradientUnits="userSpaceOnUse" x1="1774.8787" y1="9.4531" x2="1774.8787" y2="609.1855">
			<stop  offset="0" style="stop-color:#FFF"/>
			<stop  offset="1" style="stop-color:#FFF"/>
		</linearGradient>
		<path class="st11" d="M2761.94,153.39l29.26,0.58c6.63,0,10.33-0.19,11.12-0.58V33.44c0.38-6.63,3.7-12.29,9.95-16.97
			c6.24-4.68,12.09-7.02,17.55-7.02c5.46,0,9.85,1.75,13.17,5.27c3.31,3.51,4.77,8.98,4.39,16.38c-0.39,7.41-0.58,47.98-0.58,121.7
			l68.46-2.34c11.7,0,17.55,6.83,17.55,20.48c0,10.15-3.03,17.75-9.07,22.82c-6.05,5.07-12.49,7.81-19.31,8.19
			c-6.83,0.39-13.56,0.58-20.19,0.58l-35.69-0.58c0,16,1.66,47.59,4.97,94.79c3.31,47.2,5.94,77.73,7.9,91.57
			c1.95,13.85,2.34,22.82,1.17,26.92c-1.17,4.1-3.32,6.93-6.44,8.48c-5.07,2.34-11.9,3.51-20.48,3.51
			c-8.58,0-13.66-4.68-15.21-14.04c-7.81-51.1-13.07-121.31-15.8-210.64c-3.51,0.39-16.97,0.58-40.37,0.58s-35.11-6.82-35.11-20.48
			C2729.17,163.14,2740.09,153.39,2761.94,153.39z"/>
	</g>
</g>
<polygon style="fill:none;" points="2647.24,785.5 2642.23,785.5 2642.23,785.5 2647.24,785.5 "/>
</svg>
